<?xml version="1.0" standalone="no"?>
<!DOCTYPE svg PUBLIC "-//W3C//DTD SVG 20010904//EN"
 "http://www.w3.org/TR/2001/REC-SVG-20010904/DTD/svg10.dtd">
<svg version="1.0" xmlns="http://www.w3.org/2000/svg"
 width="500.000000pt" height="500.000000pt" viewBox="0 0 500.000000 500.000000"
 preserveAspectRatio="xMidYMid meet">
<metadata>
Created by potrace 1.11, written by Peter Selinger 2001-2013
</metadata>
<g transform="translate(0.000000,500.000000) scale(0.100000,-0.100000)"
fill="#000000" stroke="none">
<path d="M2435 4795 c-127 -23 -195 -66 -195 -124 0 -93 221 -153 458 -124 99
11 48 25 -103 26 -131 2 -156 5 -197 24 -52 24 -74 57 -64 96 14 58 120 89
290 85 79 -2 121 1 123 8 9 26 -191 31 -312 9z"/>
<path d="M2393 4330 c-149 -30 -177 -123 -51 -167 81 -28 255 -24 326 7 57 25
77 49 68 85 -16 64 -197 103 -343 75z m218 -43 c75 -51 26 -109 -97 -115 -108
-6 -174 28 -160 81 9 37 59 57 147 57 63 0 82 -4 110 -23z"/>
<path d="M2280 3840 l0 -100 45 0 45 0 0 63 c0 84 16 100 109 105 49 3 77 0
99 -12 31 -16 32 -18 32 -86 l0 -70 45 0 45 0 0 68 c0 58 -3 72 -23 90 -46 43
-216 54 -288 18 -27 -13 -29 -13 -29 5 0 16 -7 19 -40 19 l-40 0 0 -100z"/>
<path d="M2510 3627 c-33 -9 -50 -21 -65 -44 -16 -26 -27 -32 -53 -33 -43 0
-38 -24 6 -28 l32 -3 0 -85 0 -84 45 0 45 0 0 85 0 84 57 3 c81 4 85 28 4 28
-44 0 -61 4 -61 13 0 27 35 46 93 49 31 2 58 8 60 13 3 15 -110 16 -163 2z"/>
<path d="M2457 3213 c-32 -8 -12 -28 33 -31 47 -4 75 12 50 28 -15 10 -51 11
-83 3z"/>
<path d="M2450 3050 l0 -100 45 0 45 0 0 100 0 100 -45 0 -45 0 0 -100z"/>
<path d="M2400 2660 l0 -100 45 0 45 0 0 56 c0 30 5 64 10 74 11 20 66 40 113
40 18 0 27 5 27 16 0 14 -8 16 -49 11 -28 -3 -64 -13 -80 -22 -30 -15 -31 -15
-31 5 0 17 -6 20 -40 20 l-40 0 0 -100z"/>
<path d="M2140 2260 l0 -100 45 0 45 0 0 63 c0 83 16 100 106 105 48 3 70 0
89 -12 23 -15 25 -23 25 -86 l0 -70 45 0 45 0 0 70 c0 67 1 70 30 85 39 20
139 20 168 -1 19 -13 22 -24 22 -85 l0 -69 45 0 45 0 0 64 c0 82 -20 109 -91
126 -59 14 -151 8 -205 -15 -31 -13 -38 -13 -58 0 -45 30 -181 29 -259 0 -12
-5 -17 -2 -17 9 0 12 -10 16 -40 16 l-40 0 0 -100z"/>
<path d="M2377 1951 c-21 -3 -37 -10 -37 -16 0 -6 36 -9 95 -7 76 3 101 1 120
-12 14 -9 25 -20 25 -25 0 -4 -39 -11 -86 -15 -109 -8 -168 -23 -190 -47 -23
-25 -7 -43 51 -58 58 -15 119 -14 182 2 44 12 53 12 57 0 3 -7 20 -13 41 -13
l35 0 0 68 c0 58 -3 72 -22 90 -40 36 -159 51 -271 33z m203 -114 c0 -16 -9
-28 -25 -35 -27 -13 -132 -16 -159 -6 -18 7 -21 30 -5 40 13 8 100 21 152 23
33 1 37 -2 37 -22z"/>
<path d="M2427 1613 c-4 -3 -7 -15 -7 -25 0 -14 -8 -18 -35 -18 -24 0 -35 -5
-35 -15 0 -10 11 -15 35 -15 l35 0 0 -60 c0 -72 18 -95 82 -105 59 -9 121 -3
126 13 2 8 -11 12 -45 12 -27 0 -54 5 -61 12 -7 7 -12 38 -12 70 l0 57 62 3
c38 2 63 8 66 16 3 9 -14 12 -62 12 -64 0 -66 1 -66 25 0 22 -4 25 -38 25 -21
0 -42 -3 -45 -7z"/>
<path d="M2457 1233 c-32 -8 -12 -28 33 -31 47 -4 75 12 50 28 -15 10 -51 11
-83 3z"/>
<path d="M2450 1070 l0 -100 45 0 45 0 0 100 0 100 -45 0 -45 0 0 -100z"/>
<path d="M2393 760 c-149 -30 -177 -123 -51 -167 81 -28 255 -24 326 7 57 25
77 49 68 85 -16 64 -197 103 -343 75z m218 -43 c75 -51 26 -109 -97 -115 -108
-6 -174 28 -160 81 9 37 59 57 147 57 63 0 82 -4 110 -23z"/>
<path d="M2280 280 l0 -100 45 0 45 0 0 63 c0 84 16 100 109 105 49 3 77 0 99
-12 31 -16 32 -18 32 -86 l0 -70 45 0 45 0 0 68 c0 58 -3 72 -23 90 -46 43
-216 54 -288 18 -27 -13 -29 -13 -29 5 0 16 -7 19 -40 19 l-40 0 0 -100z"/>
</g>
</svg>
